<?xml version="1.0" encoding="UTF-8"?><svg xmlns="http://www.w3.org/2000/svg" viewBox="0 0 211.41 293.03"><defs><style>.d{fill:#fff;}</style></defs><g id="a"/><g id="b"><g id="c"><path class="d" d="M186.73,287.46l-5.97-31.85c-5.57,9.56-14.33,17.52-24.68,23.89-13.14,7.96-29.06,13.54-46.98,13.54-27.47,0-52.15-7.56-72.06-27.07C8.36,238.09,0,197.08,0,146.52,0,101.53,9.16,57.73,38.22,29.06,58.52,9.16,82.02,0,110.28,0c31.85,0,56.93,11.15,75.65,32.25,13.14,14.73,21.5,31.85,22.69,54.55h-37.03c-.8-13.94-5.97-25.88-16.32-36.23-11.15-11.15-25.08-17.12-44.99-17.12s-33.84,5.57-47.38,19.51c-23.09,23.89-26.28,64.1-26.28,93.56s1.2,70.07,24.68,93.96c14.33,14.73,27.08,19.11,47.78,19.11s34.24-5.97,46.98-18.71c18.71-18.32,22.69-46.58,22.69-72.46H105.9v-33.04h105.51v152.09h-24.68Z"/></g></g></svg>